# xmcd
# 
# Track frame offsets:
#     150
#     22493
#     37564
#     54117
#     67781
#     89175
#     103992
#     119133
#     131459
#     152308
# 
# Disc length: 2261
# 
# Revision: 0
# Processed by: cddbd v1.5.2PL0 Copyright (c) Steve Scherf et al.
# Submitted via: fre:ac v1.0.31
# 
DISCID=8008d30a
DTITLE=Sean Watkins - What To Fear
DYEAR=0
DGENRE=Folk
TTITLE0=What To Fear
TTITLE1=Last Time For Everything
TTITLE2=I Am What You Want
TTITLE3=Promises
TTITLE4=Everything
TTITLE5=Where You Were Living
TTITLE6=Too Little Too Late
TTITLE7=Local Honey
TTITLE8=Tribulations
TTITLE9=Back On My Feet
EXTD=
EXTT0=
EXTT1=
EXTT2=
EXTT3=
EXTT4=
EXTT5=
EXTT6=
EXTT7=
EXTT8=
EXTT9=
PLAYORDER=
